# xmcd
#
# Track frame offsets:
#	150
#	11370
#	24796
#	37262
#	50318
#	67337
#	82166
#	93597
#	106641
#	117955
#	131310
#	143596
#	156673
#	173614
#	188376
#	199776
#
# Disc length: 2837 seconds
#
# Revision: 1
# Processed by: cddbd v1.5.2PL0 Copyright (c) Steve Scherf et al.
# Submitted via: audiograbber 1.83.01
#
DISCID=cd0b1310
DTITLE=Patsy Cline - Sound Choice SC2002 (SC) 256 bit
DYEAR=1900
DGENRE=
TTITLE0=Blue Moon Of Kentucky (SC) 256 bit
TTITLE1=I Fall To Pieces (SC) 256 bit
TTITLE2=Sweet Dreams (SC) 256 bit
TTITLE3=Crazy (SC) 256 bit
TTITLE4=Faded Love (SC) 256 bit
TTITLE5=She's Got You (SC) 256 bit
TTITLE6=Leavin' On Your Mind (SC) 256 bit
TTITLE7=Walking After Midnight (SC) 256 bit
TTITLE8=Vocal
TTITLE9=Vocal
TTITLE10=Vocal
TTITLE11=Vocal
TTITLE12=Vocal
TTITLE13=Vocal
TTITLE14=Vocal
TTITLE15=Vocal
EXTD=
EXTT0=
EXTT1=
EXTT2=
EXTT3=
EXTT4=
EXTT5=
EXTT6=
EXTT7=
EXTT8=
EXTT9=
EXTT10=
EXTT11=
EXTT12=
EXTT13=
EXTT14=
EXTT15=
PLAYORDER=
